PathFileType	4	(X/Y/Z)	/Users/mathieubourgeois/Desktop/Analyse/Traitement/Sujet_03/Transformed_Static_Sujet_03_Tpose.trc
DataRate	CameraRate	NumFrames	NumMarkers	Units	OrigDataRate	OrigDataStartFrame	OrigNumFrames
120.000000	120.000000	5	36	mm	120.000000	122	244
Frame#	Time	RFHD			LFHD			RBHD			LBHD			C7			CLAV			RSHO			LSHO			STRN			T10			RBWT			LBWT			RFWT			LFWT			RKNI			LKNI			RKNE			LKNE			LANI			RANI			LANE			RANE			LTOE			RTOE			LHEE			RHEE			RHUM			LHUM			RRAD			LRAD			RWRA			RWRB			LWRA			LWRB			RCAR			LCAR			
		X1	Y1	Z1	X2	Y2	Z2	X3	Y3	Z3	X4	Y4	Z4	X5	Y5	Z5	X6	Y6	Z6	X7	Y7	Z7	X8	Y8	Z8	X9	Y9	Z9	X10	Y10	Z10	X11	Y11	Z11	X12	Y12	Z12	X13	Y13	Z13	X14	Y14	Z14	X15	Y15	Z15	X16	Y16	Z16	X17	Y17	Z17	X18	Y18	Z18	X19	Y19	Z19	X20	Y20	Z20	X21	Y21	Z21	X22	Y22	Z22	X23	Y23	Z23	X24	Y24	Z24	X25	Y25	Z25	X26	Y26	Z26	X27	Y27	Z27	X28	Y28	Z28	X29	Y29	Z29	X30	Y30	Z30	X31	Y31	Z31	X32	Y32	Z32	X33	Y33	Z33	X34	Y34	Z34	X35	Y35	Z35	X36	Y36	Z36	

123	1.016666666666667	-731.3560791015625	1772.126708984375	301.8386230468748	-576.08837890625	1767.9501953125	294.1920471191405	-737.9417114257812	1734.058349609375	173.6385345458982	-590.03662109375	1733.177612304688	149.2260437011717	-652.1629638671875	1575.2607421875	135.4268646240233	-648.6387939453125	1504.791259765625	268.7505798339842	-804.940185546875	1589.075439453125	161.3845825195311	-497.6510925292969	1593.943237304688	142.0023803710936	-645.8356323242188	1337.5458984375	315.3025512695311	-649.2514038085938	1333.032836914062	95.77493286132795	-719.57666015625	1090.722900390625	122.9636077880858	-599.7669067382812	1089.694702148438	128.2642669677733	-790.8662109375	1055.557373046875	285.3093872070311	-537.6842041015625	1038.289794921875	293.4078674316405	-730.775390625	478.7656555175781	167.9269561767577	-591.1033935546875	480.180908203125	156.1196289062499	-840.5457153320312	533.3676147460938	172.838165283203	-487.056884765625	525.30517578125	165.7826995849609	-586.0191040039062	94.96636962890626	139.7484741210937	-730.008056640625	98.15752410888673	160.0003356933593	-496.464599609375	75.18743896484376	120.0570373535156	-816.5859375	82.29161834716798	130.9526062011718	-522.1064453125	31.82425308227541	326.9618530273437	-797.552978515625	32.4104919433594	341.7228393554686	-544.1066284179688	38.89461898803712	61.55091476440423	-766.8410034179688	39.35153198242188	74.01085662841787	-1093.47265625	1494.515502929688	210.7774963378904	-200.6630554199219	1506.232055664062	217.3420257568358	-1107.926391601562	1527.397338867188	141.0160522460935	-194.3382415771485	1538.408325195312	144.5126495361327	-1362.686157226562	1616.33154296875	180.9700012207029	-1371.33642578125	1555.638305664062	131.7211761474607	56.95737457275388	1600.299194335938	174.5905609130859	66.96531677246092	1529.287841796875	148.4418334960937	-1470.695434570312	1603.731201171875	126.4586410522458	166.7204895019531	1573.538208007812	158.0346984863281	
124	1.025	-731.34912109375	1772.121215820312	301.9732666015623	-576.0887451171875	1767.95947265625	294.2937622070311	-737.9467163085938	1734.0576171875	173.7398071289061	-590.0469970703125	1733.17724609375	149.3378295898436	-652.1454467773438	1575.275390625	135.5201568603514	-648.6181030273438	1504.779663085938	268.8611450195311	-804.9256591796875	1589.084838867188	161.4830474853514	-497.6370544433594	1593.959228515625	142.1028900146483	-645.8023681640625	1337.525756835938	315.3306884765624	-649.2433471679688	1333.063354492188	95.82531738281233	-719.576904296875	1090.736572265625	122.9645614624022	-599.773681640625	1089.708129882812	128.2570343017577	-790.8619995117188	1055.548461914062	285.3482971191405	-537.6602172851562	1038.28857421875	293.3941345214843	-730.7742919921875	478.7621154785156	167.9246368408202	-591.0858764648438	480.1800231933594	156.0922546386718	-840.533447265625	533.3594970703125	172.848663330078	-487.048095703125	525.2991333007812	165.7626495361327	-586.0148315429688	94.95503234863283	139.7593841552734	-729.9974975585938	98.15967559814455	160.0067443847655	-496.4515075683594	75.18112945556642	120.0656356811523	-816.5865478515625	82.27993011474611	130.9645080566405	-522.1035766601562	31.83679580688479	326.9644165039062	-797.5512084960938	32.40696334838869	341.7278747558593	-544.0962524414062	38.87139511108399	61.55744171142572	-766.8492431640625	39.3497657775879	74.01499938964834	-1093.4599609375	1494.529541015625	210.8701324462888	-200.642578125	1506.229125976562	217.3816680908202	-1107.904418945312	1527.442504882812	141.0954132080076	-194.3372650146485	1538.4140625	144.562286376953	-1362.65380859375	1616.387939453125	181.1175689697263	-1371.343505859375	1555.72412109375	131.8512878417966	56.97247314453123	1600.30712890625	174.6392974853515	66.98160552978514	1529.303955078125	148.4768981933593	-1470.669311523438	1603.838256835938	126.643257141113	166.733642578125	1573.563842773438	158.0840148925781	
125	1.033333333333333	-731.3480834960938	1772.102661132812	302.106018066406	-576.0692749023438	1767.968139648438	294.4040222167967	-737.9384765625	1734.034057617188	173.8578338623045	-590.0393676757812	1733.1943359375	149.4544525146482	-652.1154174804688	1575.288818359375	135.6185302734373	-648.6083374023438	1504.768798828125	268.9588012695311	-804.8944702148438	1589.104858398438	161.5708923339842	-497.60693359375	1593.961303710938	142.196823120117	-645.7916259765625	1337.495849609375	315.3694763183593	-649.2360229492188	1333.086669921875	95.88979339599592	-719.5985717773438	1090.762817382812	123.0015640258787	-599.773193359375	1089.727661132812	128.2546539306639	-790.8297729492188	1055.544189453125	285.3697814941405	-537.6431884765625	1038.27685546875	293.3963928222655	-730.77197265625	478.7616271972656	167.9221038818358	-591.0836791992188	480.1708984375	156.0872497558593	-840.5339965820312	533.360595703125	172.8719482421874	-487.0472717285156	525.2936401367188	165.7598419189452	-586.0191040039062	94.95968627929689	139.7552947998046	-730.0008544921875	98.15374755859376	159.9976043701171	-496.4649963378906	75.1852264404297	120.0389175415038	-816.5942993164062	82.28329467773439	130.9622497558593	-522.0977172851562	31.82701301574709	326.9599914550781	-797.5489501953125	32.40677642822268	341.7165222167968	-544.1049194335938	38.88021469116212	61.56211853027337	-766.8406982421875	39.3547706604004	74.01107788085928	-1093.441528320312	1494.548706054688	210.9657287597654	-200.6273803710938	1506.213989257812	217.4311981201171	-1107.890991210938	1527.498046875	141.2078552246091	-194.304183959961	1538.428588867188	144.6388702392577	-1362.609252929688	1616.446411132812	181.2330474853513	-1371.322631835938	1555.813110351562	131.9532470703122	56.99243927001951	1600.30859375	174.6877136230468	66.99976348876952	1529.306884765625	148.5063323974609	-1470.644409179688	1603.927612304688	126.8093795776364	166.7503051757812	1573.574340820312	158.1068420410156	
126	1.041666666666667	-731.3567504882812	1772.081787109375	302.2121276855466	-576.0693359375	1767.974243164062	294.5223388671873	-737.9436645507812	1734.028076171875	173.9599914550779	-590.0211181640625	1733.210327148438	149.5760803222654	-652.08544921875	1575.306640625	135.721954345703	-648.5625610351562	1504.755126953125	269.0444030761717	-804.8726806640625	1589.124755859375	161.6680297851561	-497.5939331054688	1593.95947265625	142.2676544189452	-645.7600708007812	1337.480712890625	315.4210205078124	-649.235107421875	1333.10986328125	95.94269561767561	-719.5902099609375	1090.756469726562	123.0251388549803	-599.7853393554688	1089.720703125	128.2615966796874	-790.8094482421875	1055.527465820312	285.383575439453	-537.62646484375	1038.26611328125	293.3894042968749	-730.7667846679688	478.7695617675781	167.9184570312499	-591.083740234375	480.1869201660156	156.0839233398436	-840.5322265625	533.3577880859375	172.879928588867	-487.0345764160156	525.302978515625	165.7245635986327	-586.0166015625	94.95485687255861	139.7505645751952	-729.9974975585938	98.16835784912111	159.995880126953	-496.461669921875	75.17860412597658	120.0573654174804	-816.5860595703125	82.28247070312501	130.9549255371093	-522.0889282226562	31.83089256286623	326.9579772949218	-797.5471801757812	32.40088272094729	341.7215270996093	-544.1008911132812	38.87080383300782	61.5516510009765	-766.8567504882812	39.35612487792969	74.01173400878896	-1093.420532226562	1494.571166992188	211.0572357177732	-200.6079254150391	1506.209594726562	217.4690856933593	-1107.876953125	1527.529907226562	141.3390808105466	-194.2932891845703	1538.433471679688	144.6865234374999	-1362.57958984375	1616.5068359375	181.3492584228513	-1371.302612304688	1555.885986328125	132.079895019531	57.00890350341795	1600.320068359375	174.7577514648437	67.01446533203124	1529.329711914062	148.5353698730468	-1470.623168945312	1604.017700195312	126.949523925781	166.7854919433593	1573.580444335938	158.1531829833984	
127	1.05	-731.3524169921875	1772.068115234375	302.3337097167966	-576.06298828125	1767.986938476562	294.643341064453	-737.9136352539062	1734.026611328125	174.0518646240232	-590.0003662109375	1733.222778320312	149.6786804199217	-652.0482177734375	1575.31201171875	135.801803588867	-648.5476684570312	1504.750366210938	269.1424865722655	-804.8379516601562	1589.139526367188	161.7664184570311	-497.5628051757812	1593.964111328125	142.3418884277342	-645.746337890625	1337.463623046875	315.4572143554686	-649.2171630859375	1333.136962890625	95.99505615234358	-719.5989379882812	1090.789306640625	123.0541000366209	-599.7731323242188	1089.730712890625	128.2723541259764	-790.7960205078125	1055.522216796875	285.4223632812498	-537.6083374023438	1038.270751953125	293.3839416503905	-730.7677612304688	478.7656555175781	167.9069061279296	-591.076416015625	480.1877746582031	156.0718994140624	-840.5224609375	533.3518676757812	172.8678588867186	-487.0345458984375	525.3057861328125	165.7075042724609	-586.0137329101562	94.9745330810547	139.7590789794921	-729.9877319335938	98.15288543701173	159.9924774169921	-496.44873046875	75.18843078613283	120.0510253906249	-816.5904541015625	82.28842926025392	130.9588012695311	-522.1016845703125	31.82366561889651	326.9615783691406	-797.5462646484375	32.40229797363283	341.7256469726561	-544.094970703125	38.86879348754884	61.55891418457025	-766.8547973632812	39.35351181030274	74.00532531738271	-1093.404663085938	1494.617431640625	211.1454010009763	-200.5917205810547	1506.194946289062	217.518585205078	-1107.855712890625	1527.579345703125	141.436340332031	-194.2703399658203	1538.443115234375	144.7490844726561	-1362.540161132812	1616.546630859375	181.4922637939451	-1371.286987304688	1555.975463867188	132.2222900390622	57.04336929321287	1600.333374023438	174.8033142089843	67.03373718261717	1529.327758789062	148.5702362060546	-1470.58984375	1604.118896484375	127.1240158081052	166.8059387207031	1573.58056640625	158.1808013916015	
